<svg xmlns="http://www.w3.org/2000/svg" xmlns:xlink="http://www.w3.org/1999/xlink" width="500" zoomAndPan="magnify" viewBox="0 0 375 374.999991" height="500" preserveAspectRatio="xMidYMid meet" version="1.0"><defs><g/></defs><g fill="#000000" fill-opacity="1"><g transform="translate(11.323882, 220.380479)"><g><path d="M 44.078125 -1.515625 C 42.984375 -0.660156 41.382812 0.0351562 39.28125 0.578125 C 37.175781 1.128906 34.800781 1.40625 32.15625 1.40625 C 29.113281 1.40625 26.476562 1.015625 24.25 0.234375 C 22.03125 -0.546875 20.492188 -1.789062 19.640625 -3.5 C 18.941406 -4.832031 18.101562 -6.6875 17.125 -9.0625 C 16.15625 -11.4375 15.125 -14.082031 14.03125 -17 C 12.9375 -19.925781 11.804688 -23.066406 10.640625 -26.421875 C 9.472656 -29.773438 8.363281 -33.085938 7.3125 -36.359375 C 6.257812 -39.628906 5.300781 -42.785156 4.4375 -45.828125 C 3.582031 -48.867188 2.882812 -51.554688 2.34375 -53.890625 C 3.425781 -54.984375 4.882812 -55.9375 6.71875 -56.75 C 8.550781 -57.570312 10.5625 -57.984375 12.75 -57.984375 C 15.46875 -57.984375 17.703125 -57.414062 19.453125 -56.28125 C 21.210938 -55.15625 22.519531 -53.035156 23.375 -49.921875 L 27.9375 -32.03125 C 28.789062 -28.519531 29.609375 -25.34375 30.390625 -22.5 C 31.171875 -19.65625 31.757812 -17.457031 32.15625 -15.90625 L 32.734375 -15.90625 C 34.210938 -21.664062 35.769531 -28.050781 37.40625 -35.0625 C 39.039062 -42.082031 40.523438 -48.984375 41.859375 -55.765625 C 43.179688 -56.460938 44.675781 -57.003906 46.34375 -57.390625 C 48.019531 -57.785156 49.640625 -57.984375 51.203125 -57.984375 C 53.929688 -57.984375 56.226562 -57.398438 58.09375 -56.234375 C 59.96875 -55.066406 60.90625 -53.039062 60.90625 -50.15625 C 60.90625 -48.90625 60.613281 -47.09375 60.03125 -44.71875 C 59.445312 -42.34375 58.707031 -39.65625 57.8125 -36.65625 C 56.914062 -33.65625 55.863281 -30.476562 54.65625 -27.125 C 53.445312 -23.769531 52.21875 -20.492188 50.96875 -17.296875 C 49.71875 -14.109375 48.488281 -11.128906 47.28125 -8.359375 C 46.070312 -5.585938 45.003906 -3.304688 44.078125 -1.515625 Z M 44.078125 -1.515625 "/></g></g></g><g fill="#000000" fill-opacity="1"><g transform="translate(75.032658, 220.380479)"><g><path d="M 36.125 1.875 C 31.519531 1.875 27.25 1.234375 23.3125 -0.046875 C 19.382812 -1.335938 15.957031 -3.269531 13.03125 -5.84375 C 10.113281 -8.414062 7.816406 -11.648438 6.140625 -15.546875 C 4.460938 -19.441406 3.625 -24 3.625 -29.21875 C 3.625 -34.363281 4.460938 -38.785156 6.140625 -42.484375 C 7.816406 -46.191406 10.015625 -49.234375 12.734375 -51.609375 C 15.460938 -53.992188 18.582031 -55.75 22.09375 -56.875 C 25.601562 -58 29.1875 -58.5625 32.84375 -58.5625 C 36.976562 -58.5625 40.738281 -57.9375 44.125 -56.6875 C 47.519531 -55.445312 50.441406 -53.734375 52.890625 -51.546875 C 55.347656 -49.367188 57.257812 -46.757812 58.625 -43.71875 C 59.988281 -40.675781 60.671875 -37.363281 60.671875 -33.78125 C 60.671875 -31.132812 59.929688 -29.109375 58.453125 -27.703125 C 56.972656 -26.304688 54.90625 -25.410156 52.25 -25.015625 L 23.375 -20.6875 C 24.238281 -18.113281 25.992188 -16.1875 28.640625 -14.90625 C 31.285156 -13.625 34.328125 -12.984375 37.765625 -12.984375 C 40.953125 -12.984375 43.96875 -13.390625 46.8125 -14.203125 C 49.664062 -15.023438 51.988281 -15.976562 53.78125 -17.0625 C 55.019531 -16.289062 56.066406 -15.203125 56.921875 -13.796875 C 57.785156 -12.390625 58.21875 -10.910156 58.21875 -9.359375 C 58.21875 -5.847656 56.582031 -3.234375 53.3125 -1.515625 C 50.8125 -0.191406 48.003906 0.703125 44.890625 1.171875 C 41.773438 1.640625 38.851562 1.875 36.125 1.875 Z M 32.84375 -44.078125 C 30.976562 -44.078125 29.363281 -43.765625 28 -43.140625 C 26.632812 -42.515625 25.519531 -41.710938 24.65625 -40.734375 C 23.800781 -39.765625 23.160156 -38.675781 22.734375 -37.46875 C 22.304688 -36.257812 22.054688 -35.03125 21.984375 -33.78125 L 41.96875 -37.0625 C 41.738281 -38.613281 40.878906 -40.171875 39.390625 -41.734375 C 37.910156 -43.296875 35.726562 -44.078125 32.84375 -44.078125 Z M 32.84375 -44.078125 "/></g></g></g><g fill="#000000" fill-opacity="1"><g transform="translate(139.209034, 220.380479)"><g><path d="M 2.921875 -47.578125 C 3.546875 -50.535156 4.773438 -52.953125 6.609375 -54.828125 C 8.441406 -56.703125 10.71875 -57.640625 13.4375 -57.640625 C 16.007812 -57.640625 18 -57.015625 19.40625 -55.765625 C 20.8125 -54.515625 22.367188 -52.757812 24.078125 -50.5 L 31.5625 -40.6875 L 44.078125 -57.640625 C 48.359375 -57.640625 51.742188 -56.878906 54.234375 -55.359375 C 56.734375 -53.835938 57.984375 -51.789062 57.984375 -49.21875 C 57.984375 -48.207031 57.847656 -47.289062 57.578125 -46.46875 C 57.304688 -45.65625 56.894531 -44.816406 56.34375 -43.953125 C 55.800781 -43.097656 55.097656 -42.125 54.234375 -41.03125 C 53.378906 -39.9375 52.367188 -38.648438 51.203125 -37.171875 L 43.484375 -28.53125 L 58.796875 -8.296875 C 58.410156 -5.335938 57.242188 -3 55.296875 -1.28125 C 53.347656 0.425781 51.007812 1.28125 48.28125 1.28125 C 45.320312 1.207031 42.960938 0.351562 41.203125 -1.28125 C 39.453125 -2.914062 37.757812 -4.90625 36.125 -7.25 L 29.8125 -16.25 L 17.890625 0.9375 C 17.492188 0.9375 17.0625 0.953125 16.59375 0.984375 C 16.132812 1.023438 15.75 1.046875 15.4375 1.046875 C 11.457031 1.046875 8.429688 0.226562 6.359375 -1.40625 C 4.296875 -3.039062 3.265625 -5.066406 3.265625 -7.484375 C 3.265625 -9.347656 3.710938 -11 4.609375 -12.4375 C 5.515625 -13.882812 7.054688 -15.859375 9.234375 -18.359375 L 18.59375 -29.21875 Z M 2.921875 -47.578125 "/></g></g></g><g fill="#000000" fill-opacity="1"><g transform="translate(200.346078, 220.380479)"><g><path d="M 25.953125 -19.515625 C 25.953125 -17.492188 26.59375 -16.050781 27.875 -15.1875 C 29.164062 -14.332031 30.976562 -13.90625 33.3125 -13.90625 C 34.488281 -13.90625 35.695312 -14.003906 36.9375 -14.203125 C 38.1875 -14.398438 39.28125 -14.65625 40.21875 -14.96875 C 40.914062 -14.101562 41.515625 -13.144531 42.015625 -12.09375 C 42.523438 -11.039062 42.78125 -9.773438 42.78125 -8.296875 C 42.78125 -5.335938 41.671875 -2.921875 39.453125 -1.046875 C 37.234375 0.816406 33.316406 1.75 27.703125 1.75 C 20.847656 1.75 15.566406 0.191406 11.859375 -2.921875 C 8.160156 -6.035156 6.3125 -11.101562 6.3125 -18.125 L 6.3125 -68.15625 C 7.164062 -68.382812 8.390625 -68.632812 9.984375 -68.90625 C 11.585938 -69.1875 13.285156 -69.328125 15.078125 -69.328125 C 18.503906 -69.328125 21.171875 -68.722656 23.078125 -67.515625 C 24.992188 -66.304688 25.953125 -63.753906 25.953125 -59.859375 L 25.953125 -52.375 L 41.265625 -52.375 C 41.734375 -51.519531 42.179688 -50.445312 42.609375 -49.15625 C 43.035156 -47.875 43.25 -46.453125 43.25 -44.890625 C 43.25 -42.160156 42.644531 -40.191406 41.4375 -38.984375 C 40.226562 -37.773438 38.613281 -37.171875 36.59375 -37.171875 L 25.953125 -37.171875 Z M 25.953125 -19.515625 "/></g></g></g><g fill="#000000" fill-opacity="1"><g transform="translate(247.104827, 220.380479)"><g><path d="M 64.890625 -28.40625 C 64.890625 -23.570312 64.144531 -19.265625 62.65625 -15.484375 C 61.175781 -11.703125 59.09375 -8.523438 56.40625 -5.953125 C 53.71875 -3.390625 50.503906 -1.441406 46.765625 -0.109375 C 43.023438 1.210938 38.851562 1.875 34.25 1.875 C 29.65625 1.875 25.488281 1.171875 21.75 -0.234375 C 18.007812 -1.640625 14.789062 -3.644531 12.09375 -6.25 C 9.40625 -8.863281 7.320312 -12.039062 5.84375 -15.78125 C 4.363281 -19.519531 3.625 -23.726562 3.625 -28.40625 C 3.625 -33.007812 4.363281 -37.179688 5.84375 -40.921875 C 7.320312 -44.660156 9.40625 -47.832031 12.09375 -50.4375 C 14.789062 -53.050781 18.007812 -55.054688 21.75 -56.453125 C 25.488281 -57.859375 29.65625 -58.5625 34.25 -58.5625 C 38.851562 -58.5625 43.023438 -57.84375 46.765625 -56.40625 C 50.503906 -54.96875 53.71875 -52.941406 56.40625 -50.328125 C 59.09375 -47.710938 61.175781 -44.535156 62.65625 -40.796875 C 64.144531 -37.054688 64.890625 -32.925781 64.890625 -28.40625 Z M 23.96875 -28.40625 C 23.96875 -23.65625 24.878906 -20.007812 26.703125 -17.46875 C 28.535156 -14.9375 31.09375 -13.671875 34.375 -13.671875 C 37.644531 -13.671875 40.15625 -14.957031 41.90625 -17.53125 C 43.664062 -20.101562 44.546875 -23.726562 44.546875 -28.40625 C 44.546875 -33.082031 43.644531 -36.6875 41.84375 -39.21875 C 40.050781 -41.75 37.519531 -43.015625 34.25 -43.015625 C 30.976562 -43.015625 28.445312 -41.75 26.65625 -39.21875 C 24.863281 -36.6875 23.96875 -33.082031 23.96875 -28.40625 Z M 23.96875 -28.40625 "/></g></g></g><g fill="#000000" fill-opacity="1"><g transform="translate(315.606368, 220.380479)"><g><path d="M 25.953125 -0.109375 C 25.171875 0.117188 23.941406 0.347656 22.265625 0.578125 C 20.585938 0.816406 18.851562 0.9375 17.0625 0.9375 C 15.351562 0.9375 13.816406 0.816406 12.453125 0.578125 C 11.085938 0.347656 9.9375 -0.113281 9 -0.8125 C 8.0625 -1.519531 7.335938 -2.476562 6.828125 -3.6875 C 6.328125 -4.894531 6.078125 -6.472656 6.078125 -8.421875 L 6.078125 -43.484375 C 6.078125 -45.273438 6.40625 -46.8125 7.0625 -48.09375 C 7.726562 -49.382812 8.6875 -50.539062 9.9375 -51.5625 C 11.1875 -52.570312 12.722656 -53.484375 14.546875 -54.296875 C 16.378906 -55.117188 18.347656 -55.84375 20.453125 -56.46875 C 22.554688 -57.09375 24.738281 -57.578125 27 -57.921875 C 29.257812 -58.273438 31.519531 -58.453125 33.78125 -58.453125 C 37.519531 -58.453125 40.476562 -57.726562 42.65625 -56.28125 C 44.84375 -54.84375 45.9375 -52.488281 45.9375 -49.21875 C 45.9375 -48.125 45.78125 -47.050781 45.46875 -46 C 45.164062 -44.945312 44.78125 -43.992188 44.3125 -43.140625 C 42.675781 -43.140625 41 -43.0625 39.28125 -42.90625 C 37.5625 -42.75 35.882812 -42.515625 34.25 -42.203125 C 32.613281 -41.890625 31.070312 -41.554688 29.625 -41.203125 C 28.1875 -40.859375 26.960938 -40.453125 25.953125 -39.984375 Z M 25.953125 -0.109375 "/></g></g></g></svg>